<svg width="81" height="81" viewBox="0 0 81 81" fill="none" xmlns="http://www.w3.org/2000/svg">
    <g clip-path="url(#clip0_0_1)">
        <circle cx="40.5278" cy="40.4722" r="16.5278" fill="#0171E2"/>
        <path d="M48.0833 39.5278H42.5111V33.9556C42.5111 33.1056 41.85 32.4445 41 32.4445C40.15 32.4445 39.5833 33.1056 39.5833 33.8611V39.4333H34.0111C33.1611 39.4333 32.5 40.0945 32.5 40.9445C32.5 41.7945 33.1611 42.3611 33.9167 42.3611H39.4889V47.9333C39.4889 48.7833 40.15 49.35 40.9056 49.35C41.7556 49.35 42.3222 48.6889 42.3222 47.9333V42.3611H47.8944C48.7444 42.3611 49.3111 41.7 49.3111 40.9445C49.5 40.1889 48.8389 39.5278 48.0833 39.5278Z" fill="white"/>
    </g>
</svg>
