<svg width="244" height="84" viewBox="0 0 244 84" fill="none" xmlns="http://www.w3.org/2000/svg">
    <circle cx="121.5" cy="40.5" r="40.5" fill="#0171E2"/>
    <circle cx="121.5" cy="40.5" r="22.5" fill="#EFEFF2"/>
    <rect y="18" width="244" height="45" rx="22.5" fill="#EFEFF2"/>
    <g clip-path="url(#clip0_49_269)">
        <circle cx="121.528" cy="40.4722" r="16.5278" fill="#0171E2"/>
        <path d="M129.083 39.5278H123.511V33.9556C123.511 33.1056 122.85 32.4444 122 32.4444C121.15 32.4444 120.583 33.1056 120.583 33.8611V39.4333H115.011C114.161 39.4333 113.5 40.0944 113.5 40.9444C113.5 41.7944 114.161 42.3611 114.917 42.3611H120.489V47.9333C120.489 48.7833 121.15 49.35 121.906 49.35C122.756 49.35 123.322 48.6889 123.322 47.9333V42.3611H128.894C129.744 42.3611 130.311 41.7 130.311 40.9444C130.5 40.1889 129.839 39.5278 129.083 39.5278Z" fill="white"/>
    </g>
</svg>
